<?xml version="1.0" encoding="utf-8"?>
<!-- Generator: Adobe Illustrator 18.0.0, SVG Export Plug-In . SVG Version: 6.00 Build 0)  -->
<!DOCTYPE svg PUBLIC "-//W3C//DTD SVG 1.1//EN" "http://www.w3.org/Graphics/SVG/1.1/DTD/svg11.dtd">
<svg version="1.1" id="图层_1" xmlns="http://www.w3.org/2000/svg" xmlns:xlink="http://www.w3.org/1999/xlink" x="0px" y="0px"
	 viewBox="0 0 64 64" enable-background="new 0 0 64 64" xml:space="preserve">
<g>
	<g>
		<g>
			<path fill="#FDFEFE" d="M42.3,36.4c-0.6-1.4-4.6-2.7-4.6-2.7c-2.1-0.7-2.1-1.5-2.1-1.5c-4.1,8.1-7.2,0-7.2,0
				c-0.3,1.1-4.5,2.4-4.5,2.4c-1.2,0.5-1.8,1.2-1.8,1.2c-1.8,2.7-2,8.8-2,8.8c0,1.4,0.6,1.5,0.6,1.5c4.2,1.9,10.8,2.2,10.8,2.2
				c6.8,0.1,11.7-1.9,11.7-1.9c0.7-0.5,0.7-0.8,0.7-0.8C44.4,41.3,42.3,36.4,42.3,36.4z"/>
		</g>
	</g>
	<g>
		<g>
			<path fill="#FDFEFE" d="M37.1,25.5c0.2-0.7,1-3.4-0.5-5.1c0,0-0.7-0.9-2.4-1.5l-0.8-0.3c-0.3-0.2-0.9-0.8-0.9-1.3
				c0,0-0.4,0.2-0.6,0.5c0.1-0.3,0.2-0.5,0.5-0.7c0,0-0.3,0.1-0.5,0.4c-0.2,0.1-0.6,0.4-0.7,0.9l0,0c0,0-0.1-0.1-0.3-0.1
				c-0.2,0-0.6,0.1-0.6,0.1s-2.5,1-3.2,3.2c0,0-0.4,1,0.1,3.9c-0.8-0.4-0.2,1.6-0.2,1.6c0.1,0.5,0.3,0.7,0.4,0.8
				c0.3,2.6,2.6,5.3,4.6,5.3c2.3,0,4.6-2.8,4.9-5.3c0.1-0.1,0.3-0.3,0.4-0.8C37.3,27.1,37.8,25.3,37.1,25.5z M31.5,18.3L31.5,18.3
				c0-0.2,0.1-0.5,0.3-0.6C31.7,17.9,31.6,18.1,31.5,18.3z"/>
		</g>
	</g>
</g>
</svg>
