<?xml version="1.0" encoding="utf-8"?>
<!-- Generator: Adobe Illustrator 18.0.0, SVG Export Plug-In . SVG Version: 6.00 Build 0)  -->
<!DOCTYPE svg PUBLIC "-//W3C//DTD SVG 1.1//EN" "http://www.w3.org/Graphics/SVG/1.1/DTD/svg11.dtd">
<svg version="1.1" id="图层_1" xmlns="http://www.w3.org/2000/svg" xmlns:xlink="http://www.w3.org/1999/xlink" x="0px" y="0px"
	 viewBox="0 0 64 64" enable-background="new 0 0 64 64" xml:space="preserve">
<g>
	<g>
		<g>
			<path fill="#F6F6F6" d="M41.4,19.7H20.9c-0.9,0-1.7,0.8-1.7,1.7v17.1c0,0.9,0.8,1.7,1.7,1.7h20.6c0.9,0,1.7-0.8,1.7-1.7V21.4
				C43.2,20.4,42.4,19.7,41.4,19.7z M27.4,21c0.5,0,0.9,0.4,0.9,0.9s-0.4,0.9-0.9,0.9s-0.9-0.4-0.9-0.9C26.5,21.3,26.9,21,27.4,21z
				 M24.7,21c0.5,0,0.9,0.4,0.9,0.9s-0.4,0.9-0.9,0.9s-0.9-0.4-0.9-0.9C23.9,21.3,24.3,21,24.7,21z M22.2,21c0.5,0,0.9,0.4,0.9,0.9
				s-0.4,0.9-0.9,0.9s-0.9-0.4-0.9-0.9C21.3,21.3,21.7,21,22.2,21z M41.4,38.5H20.9V24h20.6L41.4,38.5L41.4,38.5z"/>
		</g>
	</g>
</g>
<g opacity="0.25">
	<g>
		<rect x="20.9" y="24" fill="#FFFFFF" width="20.6" height="14.5"/>
	</g>
</g>
<g>
	<g>
		<rect x="22.8" y="26.3" fill="#F7F7F7" width="2.5" height="2.5"/>
	</g>
</g>
<g>
	<g>
		<rect x="26.4" y="26.3" fill="#F7F7F7" width="2.5" height="2.5"/>
	</g>
</g>
<g>
	<g>
		<rect x="30" y="26.3" fill="#F7F7F7" width="2.5" height="2.5"/>
	</g>
</g>
<g>
	<g>
		<rect x="22.8" y="29.6" fill="#F7F7F7" width="2.5" height="2.5"/>
	</g>
</g>
<g>
	<g>
		<rect x="26.4" y="29.6" fill="#F7F7F7" width="2.5" height="2.5"/>
	</g>
</g>
<g>
	<g>
		<rect x="30" y="29.6" fill="#F7F7F7" width="2.5" height="2.5"/>
	</g>
</g>
<g>
	<g>
		<rect x="22.9" y="33" fill="#F7F7F7" width="2.5" height="2.5"/>
	</g>
</g>
<g>
	<g>
		<rect x="26.4" y="33" fill="#F7F7F7" width="2.5" height="2.5"/>
	</g>
</g>
<g>
	<g>
		<rect x="30" y="33" fill="#F7F7F7" width="2.5" height="2.5"/>
	</g>
</g>
<g>
	<g>
		<rect x="33.4" y="26.3" fill="#F7F7F7" width="2.5" height="2.5"/>
	</g>
</g>
<g>
	<g>
		<rect x="37" y="26.3" fill="#F7F7F7" width="2.5" height="2.5"/>
	</g>
</g>
<g>
	<g>
		<rect x="33.4" y="29.6" fill="#F7F7F7" width="2.5" height="2.5"/>
	</g>
</g>
<g>
	<g>
		<rect x="37" y="29.6" fill="#F7F7F7" width="2.5" height="2.5"/>
	</g>
</g>
<g>
	<g>
		<rect x="33.4" y="33" fill="#F7F7F7" width="2.5" height="2.5"/>
	</g>
</g>
<g>
	<g>
		<rect x="37" y="33" fill="#F7F7F7" width="2.5" height="2.5"/>
	</g>
</g>
</svg>
