<?xml version="1.0" encoding="utf-8"?>
<!-- Generator: Adobe Illustrator 18.0.0, SVG Export Plug-In . SVG Version: 6.00 Build 0)  -->
<!DOCTYPE svg PUBLIC "-//W3C//DTD SVG 1.1//EN" "http://www.w3.org/Graphics/SVG/1.1/DTD/svg11.dtd">
<svg version="1.1" id="图层_1" xmlns="http://www.w3.org/2000/svg" xmlns:xlink="http://www.w3.org/1999/xlink" x="0px" y="0px"
	 viewBox="0 0 64 64" enable-background="new 0 0 64 64" xml:space="preserve">
<g>
	<g>
		<g>
			<g>
				<g>
					<path fill-rule="evenodd" clip-rule="evenodd" fill="#F4F4F5" d="M41,21.2H20.4c-1,0-1.7,0.8-1.7,1.7v17.1
						c0,0.9,0.8,1.7,1.7,1.7H41c0.9,0,1.7-0.8,1.7-1.7V23C42.7,22,42,21.2,41,21.2z M26.9,22.5c0.5,0,0.9,0.4,0.9,0.9
						c0,0.5-0.4,0.9-0.9,0.9c-0.5,0-0.9-0.4-0.9-0.9C26.1,22.9,26.5,22.5,26.9,22.5z M24.3,22.5c0.5,0,0.9,0.4,0.9,0.9
						c0,0.5-0.4,0.9-0.9,0.9c-0.5,0-0.9-0.4-0.9-0.9C23.4,22.9,23.8,22.5,24.3,22.5z M21.7,22.5c0.5,0,0.9,0.4,0.9,0.9
						c0,0.5-0.4,0.9-0.9,0.9c-0.5,0-0.9-0.4-0.9-0.9C20.9,22.9,21.3,22.5,21.7,22.5z M41,40.1H20.4V25.5H41V40.1z"/>
				</g>
			</g>
		</g>
	</g>
	<g>
		<g>
			<g>
				<path fill="#F4F4F5" d="M31.8,33.2l-7.9,4v-1.2l6.7-3.3v0l-6.7-3.3v-1.2l7.9,4V33.2z"/>
			</g>
		</g>
		<g>
			<g>
				<path fill="#F4F4F5" d="M37.6,32.1v1.1h-4.2v-1.1H37.6z"/>
			</g>
		</g>
	</g>
</g>
</svg>
