<?xml version="1.0" encoding="utf-8"?>
<!-- Generator: Adobe Illustrator 18.0.0, SVG Export Plug-In . SVG Version: 6.00 Build 0)  -->
<!DOCTYPE svg PUBLIC "-//W3C//DTD SVG 1.1//EN" "http://www.w3.org/Graphics/SVG/1.1/DTD/svg11.dtd">
<svg version="1.1" id="图层_1" xmlns="http://www.w3.org/2000/svg" xmlns:xlink="http://www.w3.org/1999/xlink" x="0px" y="0px"
	 viewBox="0 0 64 64" enable-background="new 0 0 64 64" xml:space="preserve">
<g>
	<g>
		<path fill="#F4F4F4" d="M42.8,33.1l-0.8-0.8c-0.1-0.1-0.4-0.1-0.5,0l-4.2,4.2l-2.2-2.2c-0.1-0.1-0.4-0.1-0.5,0l-0.8,0.8
			c-0.1,0.1-0.1,0.4,0,0.5l3.2,3.2c0.1,0.1,0.4,0.1,0.5,0l5.2-5.2C43,33.5,43,33.2,42.8,33.1z"/>
	</g>
</g>
<g>
	<g>
	</g>
	<g opacity="0.25">
		<g>
			<path fill="none" d="M38.3,28.5c0.7,0,1.4,0.1,2.1,0.3v-4.4H19.9v14.5h12.4c-0.6-1-0.9-2.2-0.9-3.5
				C31.4,31.6,34.5,28.5,38.3,28.5z"/>
		</g>
	</g>
	<g>
		<g>
			<path fill="#F4F4F4" d="M41.9,39.9c-0.4,0.3-0.8,0.6-1.2,0.8C41.2,40.6,41.6,40.3,41.9,39.9z"/>
		</g>
	</g>
	<g>
		<g>
			<path fill="#F4F4F4" d="M42.2,29.6v-7.8c0-0.9-0.8-1.7-1.7-1.7H19.9c-1,0-1.7,0.8-1.7,1.7v17.1c0,0.9,0.8,1.7,1.7,1.7h13.8
				c1.2,1.1,2.9,1.8,4.7,1.8c3.9,0,7-3.1,7-7C45.3,33,44.1,30.9,42.2,29.6z M26.4,21.4c0.5,0,0.9,0.4,0.9,0.9c0,0.5-0.4,0.9-0.9,0.9
				c-0.5,0-0.9-0.4-0.9-0.9C25.5,21.8,25.9,21.4,26.4,21.4z M23.7,21.4c0.5,0,0.9,0.4,0.9,0.9c0,0.5-0.4,0.9-0.9,0.9
				c-0.5,0-0.9-0.4-0.9-0.9C22.9,21.8,23.3,21.4,23.7,21.4z M21.2,21.4c0.5,0,0.9,0.4,0.9,0.9c0,0.5-0.4,0.9-0.9,0.9
				c-0.5,0-0.9-0.4-0.9-0.9C20.3,21.8,20.7,21.4,21.2,21.4z M19.9,38.9V24.4h20.6v4.4c-0.7-0.2-1.4-0.3-2.1-0.3c-3.8,0-7,3.1-7,7
				c0,1.3,0.3,2.4,0.9,3.5H19.9z M41.9,39.9c-0.3,0.4-0.7,0.7-1.2,0.8c-0.7,0.3-1.5,0.5-2.3,0.5c-0.8,0-1.6-0.2-2.3-0.5
				c-0.9-0.4-1.6-1-2.2-1.7c-0.7-1-1.2-2.2-1.2-3.5c0-3.1,2.5-5.7,5.7-5.7c0.7,0,1.5,0.2,2.1,0.4c0.6,0.3,1.2,0.6,1.7,1.1
				c1.1,1,1.8,2.5,1.8,4.1C44,37.3,43.2,38.8,41.9,39.9z"/>
		</g>
	</g>
</g>
</svg>
