<?xml version="1.0" encoding="utf-8"?>
<!-- Generator: Adobe Illustrator 18.0.0, SVG Export Plug-In . SVG Version: 6.00 Build 0)  -->
<!DOCTYPE svg PUBLIC "-//W3C//DTD SVG 1.1//EN" "http://www.w3.org/Graphics/SVG/1.1/DTD/svg11.dtd">
<svg version="1.1" id="图层_1" xmlns="http://www.w3.org/2000/svg" xmlns:xlink="http://www.w3.org/1999/xlink" x="0px" y="0px"
	 viewBox="0 0 64 64" enable-background="new 0 0 64 64" xml:space="preserve">
<g>
	<g>
		<g>
			<g>
			</g>
			<g opacity="0.25">
				<g>
					<path fill="none" d="M39.9,26c0.7,0,1.4,0.1,2.1,0.3v-4.4H21.4v14.5h12.4c-0.6-1-0.9-2.2-0.9-3.5C32.9,29.1,36,26,39.9,26z"/>
				</g>
			</g>
			<g>
				<g>
					<path fill="#464E55" d="M43.4,37.4c-0.4,0.3-0.8,0.6-1.2,0.8C42.7,38.1,43.2,37.8,43.4,37.4z"/>
				</g>
			</g>
			<g>
				<g>
					<path fill="#F4F4F5" d="M43.7,27.2v-7.8c0-0.9-0.8-1.7-1.7-1.7H21.4c-0.9,0-1.7,0.8-1.7,1.7v17.1c0,0.9,0.8,1.7,1.7,1.7h13.8
						c1.2,1.1,2.9,1.8,4.7,1.8c3.8,0,7-3.1,7-7C46.9,30.6,45.6,28.4,43.7,27.2z M27.9,18.9c0.5,0,0.9,0.4,0.9,0.9
						c0,0.5-0.4,0.9-0.9,0.9c-0.5,0-0.9-0.4-0.9-0.9C27.1,19.3,27.5,18.9,27.9,18.9z M25.3,18.9c0.5,0,0.9,0.4,0.9,0.9
						c0,0.5-0.4,0.9-0.9,0.9c-0.5,0-0.9-0.4-0.9-0.9C24.4,19.3,24.8,18.9,25.3,18.9z M22.7,18.9c0.5,0,0.9,0.4,0.9,0.9
						c0,0.5-0.4,0.9-0.9,0.9c-0.5,0-0.9-0.4-0.9-0.9C21.9,19.3,22.3,18.9,22.7,18.9z M21.4,36.5V21.9H42v4.4
						c-0.7-0.2-1.4-0.3-2.1-0.3c-3.8,0-7,3.1-7,7c0,1.3,0.3,2.4,0.9,3.5H21.4z M43.4,37.4c-0.3,0.4-0.7,0.7-1.2,0.8
						c-0.7,0.3-1.5,0.5-2.3,0.5c-0.8,0-1.6-0.2-2.3-0.5c-0.9-0.4-1.6-1-2.2-1.7c-0.7-1-1.2-2.2-1.2-3.5c0-3.1,2.5-5.7,5.7-5.7
						c0.7,0,1.5,0.1,2.1,0.4c0.6,0.3,1.2,0.6,1.7,1.1c1.1,1,1.8,2.5,1.8,4.1C45.5,34.8,44.7,36.3,43.4,37.4z"/>
				</g>
			</g>
		</g>
	</g>
	<g>
		<g>
			<g>
				<path fill="#F4F4F5" d="M35.6,28.3c-2.4,2.4-2.5,6.4,0,8.8c2.3,2.3,5.9,2.5,8.4,0.4l0,0c0.5-0.4,0.6-0.6,0.9-0.9
					c1.9-2.4,1.8-6-0.5-8.3C42,25.9,38,25.9,35.6,28.3z M43.3,29.4c1.8,1.8,1.8,4.8,0,6.6c-1.8,1.8-4.8,1.8-6.6,0
					c-1.8-1.8-1.8-4.8,0-6.6C38.5,27.6,41.5,27.6,43.3,29.4z"/>
			</g>
		</g>
		<g>
			<g>
				<polygon fill="#F4F4F5" points="49.5,43.6 51.2,42.1 45.8,37.3 44.6,38.4 				"/>
			</g>
		</g>
		<g>
			<g>
				<path fill="#F4F4F5" d="M37.5,29.6c4.6-0.8,5.9,2.8,5.9,2.8l0.3-1C41.2,27.2,37.5,29.6,37.5,29.6z"/>
			</g>
		</g>
	</g>
</g>
</svg>
