<?xml version="1.0" encoding="utf-8"?>
<!-- Generator: Adobe Illustrator 18.0.0, SVG Export Plug-In . SVG Version: 6.00 Build 0)  -->
<!DOCTYPE svg PUBLIC "-//W3C//DTD SVG 1.1//EN" "http://www.w3.org/Graphics/SVG/1.1/DTD/svg11.dtd">
<svg version="1.1" id="图层_1" xmlns="http://www.w3.org/2000/svg" xmlns:xlink="http://www.w3.org/1999/xlink" x="0px" y="0px"
	 viewBox="0 0 64 64" enable-background="new 0 0 64 64" xml:space="preserve">
<g>
	<g>
		<path fill="#F4F4F5" d="M24,25.3c-2.4,2.4-2.5,6.4,0,8.8c2.3,2.3,5.9,2.5,8.4,0.4l0,0c0.5-0.4,0.6-0.6,0.9-0.9
			c1.9-2.4,1.8-6-0.5-8.3C30.4,22.9,26.5,22.9,24,25.3z M31.7,26.5c1.8,1.8,1.8,4.8,0,6.6c-1.8,1.8-4.8,1.8-6.6,0
			c-1.8-1.8-1.8-4.8,0-6.6C27,24.6,29.9,24.6,31.7,26.5z"/>
	</g>
</g>
<g>
	<g>
		<polygon fill="#F4F4F5" points="37.9,40.7 39.6,39.1 34.2,34.3 33.1,35.4 		"/>
	</g>
</g>
</svg>
